<svg xmlns="http://www.w3.org/2000/svg" viewBox="0 0 1200 300">
  <defs>
    <linearGradient id="snowflakeBlue" x1="0%" y1="0%" x2="100%" y2="0%">
      <stop offset="0%" style="stop-color:#29B5E8"/>
      <stop offset="100%" style="stop-color:#0D9DD9"/>
    </linearGradient>
  </defs>
  
  <!-- Background -->
  <rect width="1200" height="300" fill="#11567C"/>
  
  <!-- Decorative circles -->
  <circle cx="100" cy="250" r="120" fill="rgba(41,181,232,0.08)"/>
  <circle cx="1100" cy="50" r="150" fill="rgba(41,181,232,0.08)"/>
  <circle cx="600" cy="300" r="200" fill="rgba(41,181,232,0.05)"/>
  
  <!-- Audio waveform decoration -->
  <g transform="translate(50, 140)" fill="rgba(41,181,232,0.3)">
    <rect x="0" y="10" width="4" height="20" rx="2"/>
    <rect x="8" y="5" width="4" height="30" rx="2"/>
    <rect x="16" y="0" width="4" height="40" rx="2"/>
    <rect x="24" y="8" width="4" height="24" rx="2"/>
    <rect x="32" y="12" width="4" height="16" rx="2"/>
  </g>
  
  <!-- Document icon decoration -->
  <g transform="translate(1100, 120)" fill="rgba(41,181,232,0.3)">
    <rect x="0" y="0" width="40" height="50" rx="4"/>
    <rect x="8" y="12" width="24" height="3" rx="1"/>
    <rect x="8" y="20" width="20" height="3" rx="1"/>
    <rect x="8" y="28" width="24" height="3" rx="1"/>
    <rect x="8" y="36" width="16" height="3" rx="1"/>
  </g>
  
  <!-- Main title -->
  <text x="600" y="95" text-anchor="middle" font-family="'SF Pro Display', 'Segoe UI', system-ui, sans-serif" font-size="44" font-weight="600" fill="white" letter-spacing="-0.5">
    Multimodal Customer Service Analytics
  </text>
  
  <!-- Subtitle -->
  <text x="600" y="140" text-anchor="middle" font-family="'SF Pro Display', 'Segoe UI', system-ui, sans-serif" font-size="20" fill="#29B5E8" font-weight="500" letter-spacing="0.5">
    Hands-on Snowflake Cortex AI Workshop
  </text>
  
  <!-- Accent line -->
  <rect x="480" y="158" width="240" height="3" rx="1.5" fill="#29B5E8"/>
  
  <!-- Capability badges -->
  <g transform="translate(175, 195)">
    <!-- Badge 1: Transcribe -->
    <g>
      <rect x="0" y="0" width="115" height="34" rx="17" fill="rgba(41,181,232,0.2)" stroke="#29B5E8" stroke-width="1"/>
      <text x="57" y="22" text-anchor="middle" font-family="'SF Pro Display', 'Segoe UI', system-ui, sans-serif" font-size="14" fill="white" font-weight="500">Transcribe</text>
    </g>
    <!-- Badge 2: Analyze -->
    <g transform="translate(125, 0)">
      <rect x="0" y="0" width="100" height="34" rx="17" fill="rgba(41,181,232,0.2)" stroke="#29B5E8" stroke-width="1"/>
      <text x="50" y="22" text-anchor="middle" font-family="'SF Pro Display', 'Segoe UI', system-ui, sans-serif" font-size="14" fill="white" font-weight="500">Analyze</text>
    </g>
    <!-- Badge 3: Extract -->
    <g transform="translate(235, 0)">
      <rect x="0" y="0" width="95" height="34" rx="17" fill="rgba(41,181,232,0.2)" stroke="#29B5E8" stroke-width="1"/>
      <text x="47" y="22" text-anchor="middle" font-family="'SF Pro Display', 'Segoe UI', system-ui, sans-serif" font-size="14" fill="white" font-weight="500">Extract</text>
    </g>
    <!-- Badge 4: Classify -->
    <g transform="translate(340, 0)">
      <rect x="0" y="0" width="95" height="34" rx="17" fill="rgba(41,181,232,0.2)" stroke="#29B5E8" stroke-width="1"/>
      <text x="47" y="22" text-anchor="middle" font-family="'SF Pro Display', 'Segoe UI', system-ui, sans-serif" font-size="14" fill="white" font-weight="500">Classify</text>
    </g>
    <!-- Badge 5: Visualize -->
    <g transform="translate(445, 0)">
      <rect x="0" y="0" width="105" height="34" rx="17" fill="rgba(41,181,232,0.2)" stroke="#29B5E8" stroke-width="1"/>
      <text x="52" y="22" text-anchor="middle" font-family="'SF Pro Display', 'Segoe UI', system-ui, sans-serif" font-size="14" fill="white" font-weight="500">Visualize</text>
    </g>
    <!-- Badge 6: Duration -->
    <g transform="translate(560, 0)">
      <rect x="0" y="0" width="100" height="34" rx="17" fill="#29B5E8"/>
      <text x="50" y="22" text-anchor="middle" font-family="'SF Pro Display', 'Segoe UI', system-ui, sans-serif" font-size="14" font-weight="600" fill="#11567C">2 Hours</text>
    </g>
  </g>
  
  <!-- Snowflake branding -->
  <g transform="translate(30, 22)">
    <text font-family="'SF Pro Display', 'Segoe UI', system-ui, sans-serif" font-size="12" fill="#29B5E8" font-weight="600" letter-spacing="2">SNOWFLAKE CORTEX AI</text>
  </g>
  
  <!-- Decorative snowflake -->
  <g transform="translate(1140, 25)" fill="#29B5E8" opacity="0.6">
    <polygon points="12,0 14,8 12,6 10,8" />
    <polygon points="12,24 14,16 12,18 10,16" />
    <polygon points="0,12 8,10 6,12 8,14" />
    <polygon points="24,12 16,10 18,12 16,14" />
    <polygon points="3,3 9,7 7,7 7,9" />
    <polygon points="21,3 15,7 17,7 17,9" />
    <polygon points="3,21 9,17 7,17 7,15" />
    <polygon points="21,21 15,17 17,17 17,15" />
    <circle cx="12" cy="12" r="3" />
  </g>
</svg>
